Coordinates
version=1
nRows=13
nColumns=40
inDegrees=yes

Units are S.I. units (second, meters, Newtons, ...)
Angles are in degrees.

endheader
time	pelvis_tilt	pelvis_list	pelvis_rotation	pelvis_tx	pelvis_ty	pelvis_tz	hip_flexion_r	hip_adduction_r	hip_rotation_r	knee_angle_r	knee_angle_r_beta	ankle_angle_r	subtalar_angle_r	mtp_angle_r	hip_flexion_l	hip_adduction_l	hip_rotation_l	knee_angle_l	knee_angle_l_beta	ankle_angle_l	subtalar_angle_l	mtp_angle_l	lumbar_extension	lumbar_bending	lumbar_rotation	arm_flex_r	arm_add_r	arm_rot_r	elbow_flex_r	pro_sup_r	wrist_flex_r	wrist_dev_r	arm_flex_l	arm_add_l	arm_rot_l	elbow_flex_l	pro_sup_l	wrist_flex_l	wrist_dev_l
     21.32000000	     -1.71448144	     -6.07652677	      1.58821688	      1.09658054	      0.93150766	      0.49277001	      8.85653681	      4.65313744	    -12.41223037	     16.42573220	     16.42573220	     11.13924420	      0.01345713	     -4.06872859	     32.13821357	    -16.39000986	      1.16578207	     68.22015840	     68.22015840	      2.73587381	    -18.90971032	     13.45389388	    -10.44138901	      5.81690942	      1.98946637	     18.85817735	    -20.91644678	     -2.67190845	     84.45474542	     45.14273558	      0.00000000	      0.00000000	      5.17122425	     -9.87392212	     -8.66090660	     25.69530993	     45.93850811	      0.00000000	      0.00000000
     21.33392857	     -1.86463788	     -6.01642522	      1.97708554	      1.09513226	      0.93188706	      0.49312651	      8.35071087	      4.67166486	    -12.70476479	     15.75958180	     15.75958180	     11.19144044	      0.27935639	     -3.99351523	     33.22098940	    -16.37830972	      0.84110724	     65.97683023	     65.97683023	      3.82247107	    -19.06341733	     13.77436499	    -10.48809743	      5.77341311	      1.76655169	     20.70177170	    -20.59741448	     -2.85334603	     86.75898085	     45.08442419	      0.00000000	      0.00000000	      4.07592991	     -9.76755093	     -8.52284813	     25.02090183	     45.90493549	      0.00000000	      0.00000000
     21.34785714	     -2.15363582	     -5.96422007	      2.32621778	      1.09355256	      0.93197070	      0.49344838	      8.19308169	      4.66111311	    -12.95747936	     15.44520733	     15.44520733	     11.24015079	      0.27537978	     -3.96313999	     34.27714408	    -16.31233582	      0.46856684	     63.43153862	     63.43153862	      4.77361132	    -19.14640019	     13.91336056	    -10.29843116	      5.69388984	      2.18396007	     22.31661413	    -20.91423719	     -3.16615836	     87.86336315	     45.06686643	      0.00000000	      0.00000000	      3.23386607	     -9.50289606	     -8.47648102	     24.69179428	     45.88300682	      0.00000000	      0.00000000
     21.36178571	     -2.21823943	     -5.85343194	      2.73184341	      1.09218711	      0.93235557	      0.49348430	      7.53902063	      4.58745596	    -13.50231328	     14.69469011	     14.69469011	     11.29878590	      0.98750056	     -4.05651564	     34.93195413	    -15.99932581	      0.22629223	     60.68481167	     60.68481167	      6.18258294	    -19.17588768	     15.73101219	    -10.60363708	      5.67921898	      2.17829750	     23.51300934	    -20.92543248	     -3.42527525	     92.86390038	     44.93499657	      0.00000000	      0.00000000	      1.99651601	     -9.45260918	     -7.84044006	     24.79229635	     45.76795604	      0.00000000	      0.00000000
     21.37571429	     -2.39446808	     -5.76612870	      3.08280543	      1.09069435	      0.93246299	      0.49349490	      7.17307026	      4.55261569	    -13.74217609	     14.21304904	     14.21304904	     11.36572026	      1.09998431	     -4.01761540	     35.48973359	    -15.65938657	     -0.01634995	     57.59648654	     57.59648654	      6.98573878	    -19.17304313	     16.11714847	    -10.62897143	      5.61995548	      2.18755178	     25.33386136	    -20.61724730	     -3.86265698	     94.75347464	     44.90162051	      0.00000000	      0.00000000	      1.00249174	     -9.31696592	     -7.54740785	     24.38309665	     45.70636386	      0.00000000	      0.00000000
     21.38964286	     -2.58540440	     -5.67038540	      3.42069102	      1.08924441	      0.93241355	      0.49327170	      6.85611539	      4.47511042	    -14.04393962	     13.80615841	     13.80615841	     11.48075065	      1.29878063	     -4.04635073	     35.88865380	    -15.17965986	     -0.12622047	     54.28362274	     54.28362274	      7.64778386	    -19.12692006	     16.39843845	    -10.65639582	      5.56403990	      2.27447687	     26.99004631	    -20.43672615	     -4.17449915	     96.73152653	     44.86124379	      0.00000000	      0.00000000	      0.04341901	     -9.13501719	     -7.25661034	     24.17718709	     45.64254748	      0.00000000	      0.00000000
     21.40357143	     -2.90710619	     -5.57399778	      3.70559102	      1.08766365	      0.93205986	      0.49287079	      6.75356435	      4.37189197	    -14.27692400	     13.50972373	     13.50972373	     11.59367680	      1.33923823	     -4.07817609	     36.28703612	    -14.57988380	     -0.08389761	     50.79383770	     50.79383770	      8.15008214	    -19.01297711	     16.57517066	    -10.53055728	      5.47573822	      2.55548305	     28.63549546	    -20.56873779	     -4.47737326	     98.00932749	     44.84002422	      0.00000000	      0.00000000	     -0.72819517	     -8.89598856	     -7.12068994	     24.00473667	     45.60541621	      0.00000000	      0.00000000
     21.41750000	     -3.04284017	     -5.50197895	      4.03938418	      1.08631273	      0.93178635	      0.49221702	      6.42151974	      4.24788421	    -14.82404474	     13.21726921	     13.21726921	     11.80438742	      1.97729270	     -4.39065951	     36.29339786	    -13.92539133	      0.15232634	     47.07153138	     47.07153138	      7.97903523	    -18.81261949	     15.27503909	    -10.67302844	      5.48227107	      2.86571297	     29.65082958	    -20.51578688	     -4.86499189	    100.91751471	     44.78682339	      0.00000000	      0.00000000	     -1.84684895	     -8.84271875	     -6.07075495	     24.82269853	     45.41197423	      0.00000000	      0.00000000
     21.43142857	     -3.33814801	     -5.41663667	      4.32017887	      1.08482928	      0.93121285	      0.49139401	      6.32494070	      4.13699925	    -14.94977197	     13.00047346	     13.00047346	     11.99860488	      1.88972576	     -4.45978698	     36.40685848	    -13.16681673	      0.59193539	     43.41339294	     43.41339294	      8.28003540	    -18.34650848	     15.36782549	    -10.54493438	      5.41527655	      3.09002335	     31.15557308	    -20.47076049	     -5.07322054	    101.86577765	     44.77273258	      0.00000000	      0.00000000	     -2.51250141	     -8.59034654	     -5.90541648	     24.60551096	     45.37455245	      0.00000000	      0.00000000
     21.44535714	     -3.50529020	     -5.40970062	      4.63398426	      1.08354171	      0.93066656	      0.49038604	      6.04740804	      4.07799909	    -15.39899805	     12.73345328	     12.73345328	     12.17243408	      2.26817424	     -4.76753457	     36.23064719	    -12.49555111	      1.15140970	     39.64509115	     39.64509115	      7.82956696	    -17.72822491	     13.58546956	    -10.61713883	      5.49010847	      2.99458557	     32.42949615	    -19.96935754	     -5.08096571	    103.81699773	     44.73246899	      0.00000000	      0.00000000	     -3.50117525	     -8.47378477	     -5.20505051	     24.87704820	     45.25221920	      0.00000000	      0.00000000
     21.45928571	     -3.68974179	     -5.35973001	      4.90616261	      1.08235528	      0.93001156	      0.48926804	      5.81671117	      3.99474303	    -15.56576353	     12.52868389	     12.52868389	     12.34164780	      2.23383413	     -5.20339888	     35.91235215	    -11.85914220	      1.59191541	     35.88029887	     35.88029887	      7.03210526	    -16.79925698	     10.88090211	    -10.60328204	      5.43979112	      3.31270968	     33.45996736	    -20.01560416	     -5.19250720	    104.76817913	     44.74734057	      0.00000000	      0.00000000	     -4.30175917	     -8.40463855	     -3.76910780	     25.52947711	     45.05797938	      0.00000000	      0.00000000
     21.47321429	     -3.86974055	     -5.35344610	      5.18864677	      1.08127760	      0.92933444	      0.48800394	      5.56952645	      3.95517211	    -15.72069307	     12.32278282	     12.32278282	     12.59605058	      2.20202079	     -5.32990853	     35.71486346	    -11.29408001	      2.07838253	     32.69646502	     32.69646502	      7.38119879	    -15.23131331	     11.05129628	    -10.56495179	      5.44351111	      3.41361166	     34.44705760	    -19.78110922	     -5.19319011	    105.62677966	     44.72863744	      0.00000000	      0.00000000	     -4.84834879	     -8.24175457	     -3.63376863	     25.35063899	     45.03561048	      0.00000000	      0.00000000
     21.48714286	     -4.06480194	     -5.39771432	      5.50696843	      1.08026967	      0.92856575	      0.48653911	      5.32592650	      3.95626947	    -15.89939592	     12.09626628	     12.09626628	     12.82927468	      2.20819886	     -5.47093768	     35.57219235	    -10.80512049	      2.50288295	     29.91056284	     29.91056284	      7.63841611	    -13.51909448	     11.18312174	    -10.48246763	      5.51982961	      3.50945499	     35.26656093	    -19.61124296	     -5.17320192	    106.39435491	     44.71065723	      0.00000000	      0.00000000	     -5.30711728	     -8.02408474	     -3.53770424	     25.25906786	     45.01853453	      0.00000000	      0.00000000
